<svg width="125" height="114" viewBox="0 0 125 114" fill="none" xmlns="http://www.w3.org/2000/svg">
<g filter="url(#filter0_d_27_357)">
<path d="M67.4844 64.7487V54.8362H54.5134V64.7487C56.0425 64.3345 57.6507 64.0584 59.2853 63.9479V59.8062H62.7389V63.9479C64.3735 64.0584 65.9553 64.3345 67.4844 64.7487Z" fill="white"/>
<path d="M49.5563 66.6814C50.9799 65.9359 52.509 65.3285 54.0645 64.8867L49.319 56.2996L38.088 63.092L42.8335 71.6791C43.9935 70.4918 45.2326 69.415 46.5772 68.4762L44.5999 64.8867L47.6053 63.0643L49.5563 66.6814Z" fill="white"/>
<path d="M27.7804 78.8303L35.9795 83.8004C36.4013 82.1713 36.9813 80.5698 37.6932 79.0788L34.2659 77.008L36.0059 73.8603L39.4332 75.9311C40.3295 74.523 41.3577 73.2252 42.4914 72.0103L34.2922 67.0403L27.7804 78.8303Z" fill="white"/>
<path d="M86.1499 84.2698C86.4663 85.5951 86.7035 86.9481 86.8354 88.3563C86.8617 88.66 86.8881 88.9637 86.9144 89.2674H90.869V93.7957H95.6408H99.9645C101.309 93.6853 102.39 92.5256 102.39 91.0898C102.39 89.654 101.335 88.4667 99.9645 88.3839H95.6408V84.2974H86.1499V84.2698Z" fill="white"/>
<path d="M79.5062 72.0381C80.6399 73.253 81.6681 74.5508 82.5644 75.9589L85.9917 73.8881L87.7317 77.0358L84.3044 79.1066C85.0163 80.5977 85.5963 82.1991 86.0181 83.8282L94.2172 78.8581L87.7317 67.0957L79.5062 72.0381Z" fill="white"/>
<path d="M67.959 64.8867C69.5145 65.3285 71.0436 65.9359 72.4672 66.6814L74.4445 63.0919L77.45 64.9143L75.4727 68.5038C76.8172 69.4425 78.0563 70.5194 79.2164 71.7067L83.9618 63.1195L72.7308 56.3271L67.959 64.8867Z" fill="white"/>
<path d="M60.9721 0L9.80003 93.7958H26.3829H31.1547V89.2675H35.1093C35.1356 88.9638 35.162 88.6601 35.1884 88.3563C35.3202 86.9758 35.5311 85.5952 35.8738 84.2699H26.3829V88.3563H18.7374L61.0249 10.8789L110.984 100.588H6.4782C5.10728 100.643 4 101.831 4 103.294C4 104.757 5.10728 105.945 6.4782 106H120.027L60.9721 0Z" fill="white"/>
<path d="M60.9982 17.616L44.9954 51.1085H76.9746L60.9982 17.616ZM63.5554 41.4722V36.8335H64.9264V47.9056H63.5554V42.7147H61.8418V47.9056H60.1282V42.7147H58.4409V47.9056H57.07V36.8335H58.4409V41.4722H60.1282V35.591H56.1209V34.0723H65.9018V35.591H61.8682V41.4722H63.5554Z" fill="white"/>
<path d="M61.8428 41.4722H60.1292V42.7147H61.8428V41.4722Z" fill="white"/>
<path d="M40.4342 82.8065V76.3455H42.4115V81.1498H45.5751V82.8065H40.4342Z" fill="white"/>
<path d="M52.3244 80.211C52.3244 80.6528 52.2453 81.0394 52.1135 81.3983C51.9817 81.7297 51.7708 82.0058 51.5071 82.2543C51.2435 82.4752 50.9271 82.6408 50.558 82.7789C50.189 82.8893 49.7408 82.9446 49.2662 82.9446C48.7917 82.9446 48.3435 82.8893 47.9744 82.7789C47.6053 82.6684 47.2626 82.5028 46.9989 82.2543C46.7353 82.0334 46.5244 81.7573 46.3926 81.3983C46.2607 81.067 46.1816 80.6804 46.1816 80.211V76.3455H48.1589V80.1834C48.1589 80.3491 48.1853 80.5148 48.238 80.6528C48.2908 80.7909 48.3435 80.9289 48.4489 81.0394C48.528 81.1498 48.6598 81.2327 48.7917 81.2879C48.9235 81.3431 49.0817 81.3707 49.2662 81.3707C49.4508 81.3707 49.6089 81.3431 49.7408 81.2879C49.8726 81.2327 50.0044 81.1498 50.0835 81.0394C50.1626 80.9289 50.2417 80.8185 50.2944 80.6528C50.3471 80.5148 50.3735 80.3491 50.3735 80.1834V76.3455H52.3508V80.211H52.3244Z" fill="white"/>
<path d="M60.8927 82.8065H58.9418V80.4872C58.9418 80.2387 58.9418 79.9902 58.9682 79.7693C58.9946 79.5208 58.9946 79.2999 59.0209 79.1066C59.0473 78.8857 59.0736 78.6648 59.1 78.4439H59.0736L57.94 82.8065H56.3845L55.2509 78.4439H55.2245C55.2509 78.6648 55.2773 78.8581 55.3036 79.1066C55.33 79.2999 55.33 79.5208 55.3563 79.7693C55.3827 80.0178 55.3827 80.2663 55.3827 80.4872V82.8065H53.5636V76.3455H56.3582L57.2545 80.073H57.2809L58.2036 76.3455H60.8927V82.8065Z" fill="white"/>
<path d="M66.1912 76.3455C66.4285 76.3455 66.6394 76.3731 66.8503 76.456C67.0613 76.5388 67.2458 76.6492 67.3776 76.7873C67.5358 76.9253 67.6676 77.091 67.7467 77.2843C67.8258 77.4776 67.8785 77.6985 67.8785 77.9194C67.8785 78.1679 67.8522 78.3611 67.7994 78.5268C67.7467 78.6925 67.6676 78.8305 67.5622 78.9686C67.4567 79.079 67.3513 79.1895 67.2458 79.2447C67.114 79.3275 66.9822 79.3828 66.8503 79.4104V79.438C67.0085 79.4656 67.1667 79.5208 67.2985 79.6036C67.4303 79.6865 67.5622 79.7693 67.6676 79.9074C67.7731 80.0454 67.8522 80.1835 67.9313 80.3768C67.984 80.57 68.0367 80.7909 68.0367 81.0394C68.0367 81.2879 67.984 81.5364 67.9049 81.7297C67.7994 81.9506 67.694 82.1163 67.5094 82.2819C67.3513 82.42 67.1667 82.5581 66.9294 82.6409C66.7185 82.7237 66.4813 82.7513 66.244 82.7513H62.0785V76.2903H66.1912V76.3455ZM64.0821 77.7537V78.8581H65.4531C65.5058 78.8581 65.5849 78.8581 65.6376 78.8305C65.6903 78.8029 65.7431 78.7753 65.7958 78.7201C65.8485 78.6649 65.8749 78.6096 65.9012 78.5544C65.9276 78.4992 65.9276 78.4164 65.9276 78.3611V78.2783C65.9276 78.2231 65.9276 78.1402 65.9012 78.085C65.8749 78.0298 65.8485 77.9746 65.7958 77.9194C65.7431 77.8641 65.7167 77.8365 65.664 77.8089C65.6112 77.7813 65.5585 77.7813 65.4794 77.7813H64.0821V77.7537ZM64.0821 80.2111V81.3156H65.5849C65.6376 81.3156 65.7167 81.3155 65.7694 81.2879C65.8222 81.2603 65.8749 81.2327 65.9276 81.1775C65.9803 81.1223 66.0067 81.067 66.0331 81.0118C66.0594 80.9566 66.0594 80.8738 66.0594 80.8185V80.7357C66.0594 80.6529 66.0594 80.5977 66.0331 80.5424C66.0067 80.4872 65.9803 80.432 65.9276 80.3768C65.8749 80.3215 65.8485 80.2939 65.7694 80.2663C65.7167 80.2387 65.664 80.2387 65.5849 80.2387H64.0821V80.2111Z" fill="white"/>
<path d="M69.0656 82.8065V76.3455H74.391V77.8917H71.0428V78.7753H73.9165V80.2663H71.0428V81.2603H74.4438V82.8065H69.0656Z" fill="white"/>
<path d="M81.3239 78.8857C81.2712 79.0514 81.1921 79.2446 81.113 79.3827C81.0076 79.5484 80.9021 79.6864 80.7439 79.7969C80.5857 79.9073 80.4276 80.0178 80.2167 80.1006L81.5876 82.8065H79.373L78.2657 80.4595H77.5276V82.8065H75.5503V76.3455H79.3203C79.663 76.3455 79.953 76.4007 80.2167 76.5111C80.4803 76.6216 80.6912 76.7596 80.8757 76.9529C81.0603 77.1462 81.1921 77.3395 81.2712 77.588C81.3503 77.8365 81.403 78.085 81.403 78.3335C81.3766 78.5268 81.3766 78.6924 81.3239 78.8857ZM79.3203 78.1678C79.2939 78.085 79.2412 78.0297 79.1885 77.9745C79.1357 77.9193 79.083 77.8917 79.0039 77.8641C78.9248 77.8365 78.8721 77.8089 78.793 77.8089H77.5012V78.9961H78.793C78.8721 78.9961 78.9512 78.9685 79.0039 78.9409C79.083 78.9133 79.1357 78.8581 79.1885 78.8029C79.2412 78.7476 79.2676 78.6924 79.3203 78.6096C79.3467 78.5268 79.373 78.4439 79.373 78.3611C79.373 78.3335 79.3467 78.2506 79.3203 78.1678Z" fill="white"/>
<path d="M48.6333 88.246C48.5542 88.4945 48.4487 88.743 48.3169 88.9639C48.1851 89.1848 48.0005 89.378 47.7896 89.5713C47.5787 89.737 47.3414 89.875 47.0514 89.9855L49.0024 93.8235H45.8387L44.2832 90.4825H43.2287V93.8235H40.4341V84.6565H45.786C46.2605 84.6565 46.7087 84.7393 47.0514 84.8774C47.4205 85.043 47.7369 85.2363 47.9742 85.4848C48.2114 85.7333 48.396 86.0371 48.5278 86.3684C48.6596 86.6997 48.7124 87.0587 48.7124 87.4452C48.7387 87.749 48.686 87.9975 48.6333 88.246ZM45.8123 87.252C45.7596 87.1415 45.7069 87.0587 45.6541 86.9758C45.575 86.893 45.496 86.8378 45.3905 86.8102C45.285 86.7826 45.206 86.755 45.0741 86.755H43.2287V88.4392H45.0741C45.1796 88.4392 45.285 88.4116 45.3905 88.384C45.496 88.3288 45.575 88.2736 45.6541 88.2184C45.7332 88.1355 45.786 88.0527 45.8123 87.9422C45.8651 87.8318 45.8651 87.7213 45.8651 87.6109C45.8651 87.4728 45.8651 87.3624 45.8123 87.252Z" fill="white"/>
<path d="M56.4371 84.7944C57.0171 84.9877 57.518 85.2915 57.9135 85.7056C58.3089 86.0922 58.6253 86.5892 58.8362 87.1966C59.0471 87.7765 59.1525 88.4668 59.1525 89.2399C59.1525 90.013 59.0471 90.7033 58.8362 91.3107C58.6253 91.8906 58.3089 92.3876 57.9135 92.8017C57.518 93.1883 57.0171 93.492 56.4371 93.6853C55.8571 93.8786 55.1716 93.989 54.4335 93.989C53.6953 93.989 53.0362 93.8786 52.4298 93.6853C51.8498 93.492 51.3489 93.1883 50.9535 92.8017C50.558 92.4152 50.2416 91.9182 50.0307 91.3107C49.8198 90.7309 49.7144 90.0406 49.7144 89.2399C49.7144 88.4668 49.8198 87.7765 50.0307 87.1966C50.2416 86.6168 50.558 86.1198 50.9535 85.7056C51.3489 85.3191 51.8498 85.0153 52.4298 84.7944C53.0098 84.6012 53.6689 84.4907 54.4335 84.4907C55.198 84.4907 55.8571 84.6012 56.4371 84.7944ZM53.6425 86.8653C53.4053 86.9757 53.2207 87.1138 53.0625 87.3071C52.9044 87.5004 52.7989 87.7213 52.7198 87.9698C52.6407 88.2183 52.6144 88.522 52.6144 88.8257V89.6817C52.6144 89.9854 52.6407 90.2891 52.7198 90.5376C52.7989 90.7861 52.9044 91.0346 53.0625 91.2003C53.2207 91.3936 53.4053 91.5316 53.6425 91.6421C53.8798 91.7525 54.1435 91.8077 54.4598 91.8077C54.7762 91.8077 55.0398 91.7525 55.2771 91.6421C55.5144 91.5316 55.6989 91.3936 55.8571 91.2003C56.0153 91.007 56.1207 90.7861 56.1998 90.5376C56.2789 90.2891 56.3053 89.9854 56.3053 89.6817V88.8257C56.3053 88.522 56.2789 88.2183 56.1998 87.9698C56.1207 87.7213 56.0153 87.4728 55.8571 87.3071C55.6989 87.1138 55.5144 86.9757 55.2771 86.8653C55.0398 86.7549 54.7762 86.6996 54.4598 86.6996C54.1435 86.6996 53.8798 86.7549 53.6425 86.8653Z" fill="white"/>
<path d="M67.0356 84.7944C67.6156 84.9877 68.1165 85.2915 68.512 85.7056C68.9075 86.0922 69.2238 86.5892 69.4347 87.1966C69.6456 87.7765 69.7511 88.4668 69.7511 89.2399C69.7511 90.013 69.6456 90.7033 69.4347 91.3107C69.2238 91.8906 68.9075 92.3876 68.512 92.8017C68.1165 93.1883 67.6156 93.492 67.0356 93.6853C66.4556 93.8786 65.7702 93.989 65.032 93.989C64.2938 93.989 63.6347 93.8786 63.0283 93.6853C62.4483 93.492 61.9474 93.1883 61.552 92.8017C61.1565 92.4152 60.8401 91.9182 60.6292 91.3107C60.4183 90.7309 60.3129 90.0406 60.3129 89.2399C60.3129 88.4668 60.4183 87.7765 60.6292 87.1966C60.8401 86.6168 61.1565 86.1198 61.552 85.7056C61.9474 85.3191 62.4483 85.0153 63.0283 84.7944C63.6083 84.6012 64.2674 84.4907 65.032 84.4907C65.7702 84.4907 66.4556 84.6012 67.0356 84.7944ZM64.2147 86.8653C63.9774 86.9757 63.7929 87.1138 63.6347 87.3071C63.4765 87.5004 63.3711 87.7213 63.292 87.9698C63.2129 88.2183 63.1865 88.522 63.1865 88.8257V89.6817C63.1865 89.9854 63.2129 90.2891 63.292 90.5376C63.3711 90.7861 63.4765 91.0346 63.6347 91.2003C63.7929 91.3936 63.9774 91.5316 64.2147 91.6421C64.452 91.7525 64.7156 91.8077 65.032 91.8077C65.3483 91.8077 65.612 91.7525 65.8493 91.6421C66.0865 91.5316 66.2711 91.3936 66.4293 91.2003C66.5874 91.007 66.6929 90.7861 66.772 90.5376C66.8511 90.2891 66.8774 89.9854 66.8774 89.6817V88.8257C66.8774 88.522 66.8511 88.2183 66.772 87.9698C66.6929 87.7213 66.5874 87.4728 66.4293 87.3071C66.2711 87.1138 66.0865 86.9757 65.8493 86.8653C65.612 86.7549 65.3483 86.6996 65.032 86.6996C64.7156 86.6996 64.452 86.7549 64.2147 86.8653Z" fill="white"/>
<path d="M81.5612 93.8235H78.793V90.5101C78.793 90.1511 78.793 89.8198 78.8194 89.4609C78.8457 89.1295 78.8721 88.7982 78.8985 88.5221C78.9248 88.1907 78.9512 87.887 79.0039 87.5833H78.9512L77.343 93.7959H75.1548L73.5203 87.6109H73.4676C73.5203 87.9146 73.5467 88.2184 73.573 88.5221C73.5994 88.7982 73.6258 89.1019 73.6521 89.4609C73.6785 89.7922 73.6785 90.1511 73.6785 90.5101V93.8235H71.0948V84.6565H75.0494L76.3676 89.9303H76.4203L77.7385 84.6565H81.5612V93.8235Z" fill="white"/>
</g>
<defs>
<filter id="filter0_d_27_357" x="0" y="0" width="124.027" height="114" filterUnits="userSpaceOnUse" color-interpolation-filters="sRGB">
<feFlood flood-opacity="0" result="BackgroundImageFix"/>
<feColorMatrix in="SourceAlpha" type="matrix" values="0 0 0 0 0 0 0 0 0 0 0 0 0 0 0 0 0 0 127 0" result="hardAlpha"/>
<feOffset dy="4"/>
<feGaussianBlur stdDeviation="2"/>
<feColorMatrix type="matrix" values="0 0 0 0 0 0 0 0 0 0 0 0 0 0 0 0 0 0 0.5 0"/>
<feBlend mode="normal" in2="BackgroundImageFix" result="effect1_dropShadow_27_357"/>
<feBlend mode="normal" in="SourceGraphic" in2="effect1_dropShadow_27_357" result="shape"/>
</filter>
</defs>
</svg>
